<svg xmlns="http://www.w3.org/2000/svg" viewBox="0 0 120 120" fill="none">
  <g fill="#050505">
    <circle cx="42" cy="20" r="9"/>
    <rect x="37" y="32" width="11" height="31" rx="5"/>
    <circle cx="82" cy="22" r="9"/>
    <rect x="77" y="34" width="11" height="31" rx="5"/>
    <rect x="47" y="42" width="34" height="8" rx="4" transform="rotate(-8 64 46)"/>
    <rect x="55" y="52" width="34" height="8" rx="4" transform="rotate(12 72 56)"/>
    <path d="M65 29c8 3 14 9 17 17l-8 3c-2-6-6-10-12-12z"/>
    <rect x="36" y="63" width="10" height="34" rx="5" transform="rotate(10 41 80)"/>
    <rect x="75" y="65" width="10" height="33" rx="5" transform="rotate(-10 80 81)"/>
    <rect x="29" y="96" width="25" height="8" rx="4"/>
    <rect x="69" y="96" width="25" height="8" rx="4"/>
  </g>
</svg>
