<svg xmlns="http://www.w3.org/2000/svg" viewBox="0 0 120 120" fill="none">
  <g fill="#050505">
    <circle cx="46" cy="19" r="9"/>
    <rect x="41" y="31" width="11" height="31" rx="5"/>
    <rect x="52" y="38" width="36" height="8" rx="4" transform="rotate(5 70 42)"/>
    <circle cx="91" cy="42" r="6"/>
    <rect x="28" y="45" width="23" height="8" rx="4" transform="rotate(34 39 49)"/>
    <rect x="41" y="62" width="10" height="34" rx="5" transform="rotate(10 46 79)"/>
    <rect x="64" y="62" width="10" height="34" rx="5" transform="rotate(-14 69 79)"/>
    <path d="M84 26h18v8H84zM84 52h18v8H84z"/>
    <rect x="33" y="96" width="25" height="8" rx="4"/>
    <rect x="60" y="96" width="25" height="8" rx="4"/>
  </g>
</svg>
