<svg xmlns="http://www.w3.org/2000/svg" viewBox="0 0 120 120" fill="none">
  <g fill="#050505">
    <circle cx="43" cy="21" r="9"/>
    <circle cx="78" cy="24" r="9"/>
    <rect x="38" y="34" width="11" height="32" rx="5" transform="rotate(12 43 50)"/>
    <rect x="73" y="37" width="11" height="31" rx="5" transform="rotate(-13 78 52)"/>
    <rect x="47" y="42" width="34" height="8" rx="4" transform="rotate(10 64 46)"/>
    <rect x="45" y="55" width="33" height="8" rx="4" transform="rotate(-17 61 59)"/>
    <rect x="37" y="66" width="10" height="32" rx="5" transform="rotate(10 42 82)"/>
    <rect x="75" y="68" width="10" height="30" rx="5" transform="rotate(-12 80 83)"/>
    <rect x="31" y="96" width="24" height="8" rx="4"/>
    <rect x="68" y="96" width="24" height="8" rx="4"/>
  </g>
</svg>
