<svg xmlns="http://www.w3.org/2000/svg" viewBox="0 0 120 120" fill="none">
  <g fill="#050505">
    <circle cx="44" cy="20" r="9"/>
    <rect x="39" y="32" width="11" height="31" rx="5" transform="rotate(8 44 47)"/>
    <rect x="50" y="38" width="29" height="8" rx="4" transform="rotate(-15 64 42)"/>
    <circle cx="82" cy="28" r="9"/>
    <rect x="77" y="40" width="11" height="30" rx="5" transform="rotate(-8 82 55)"/>
    <rect x="55" y="55" width="30" height="8" rx="4" transform="rotate(25 70 59)"/>
    <rect x="36" y="63" width="10" height="34" rx="5" transform="rotate(10 41 80)"/>
    <rect x="76" y="70" width="10" height="28" rx="5" transform="rotate(-20 81 84)"/>
    <rect x="29" y="96" width="25" height="8" rx="4"/>
    <rect x="72" y="96" width="25" height="8" rx="4"/>
  </g>
</svg>
