<svg xmlns="http://www.w3.org/2000/svg" viewBox="0 0 120 120" fill="none">
  <g fill="#050505">
    <rect x="58" y="10" width="7" height="96" rx="3" transform="rotate(35 61 58)"/>
    <circle cx="49" cy="22" r="9"/>
    <rect x="44" y="34" width="11" height="32" rx="5" transform="rotate(8 49 50)"/>
    <rect x="51" y="40" width="33" height="8" rx="4" transform="rotate(-29 67 44)"/>
    <rect x="28" y="46" width="26" height="8" rx="4" transform="rotate(24 41 50)"/>
    <rect x="40" y="66" width="10" height="33" rx="5" transform="rotate(10 45 82)"/>
    <rect x="63" y="65" width="10" height="34" rx="5" transform="rotate(-12 68 82)"/>
    <rect x="32" y="98" width="24" height="8" rx="4"/>
    <rect x="59" y="98" width="25" height="8" rx="4"/>
  </g>
</svg>
